<svg xmlns="http://www.w3.org/2000/svg" xmlns:xlink="http://www.w3.org/1999/xlink" width="100" height="100" viewBox="0 0 100 100"><defs><clipPath id="b"><rect width="100" height="100"/></clipPath></defs><g id="a" clip-path="url(#b)"><g transform="translate(-7.109 -7.109)"><path d="M94.651,2H9.127A7.135,7.135,0,0,0,2,9.127V94.651a7.135,7.135,0,0,0,7.127,7.127H94.651a7.135,7.135,0,0,0,7.127-7.127V9.127A7.135,7.135,0,0,0,94.651,2Zm0,42.762H76.833V9.127H94.651ZM51.889,9.127H69.706V44.762H51.889Zm-7.127,0V66.143H9.127V9.127ZM9.127,73.27H44.762V94.651H9.127ZM51.889,94.651V51.889H94.651V94.651Z" transform="translate(5.127 5.127)" fill="#f06"/><rect width="114" height="114" transform="translate(0.109 0.109)" fill="none"/></g></g></svg>
